<svg width="18" height="18" viewBox="0 0 18 18" fill="none" xmlns="http://www.w3.org/2000/svg">
<path d="M16.5596 1.81498H14.399V-0.00242615H12.5985V1.81498H5.39658V-0.00242615H3.59609V1.81498H1.46468C0.669225 1.81498 0.024292 2.45992 0.024292 3.25537V16.562C0.024292 17.3575 0.669225 18.0024 1.46468 18.0024H16.5596C17.355 18.0024 18 17.3575 18 16.562V3.25537C18 2.45992 17.355 1.81498 16.5596 1.81498ZM16.1995 16.2019H1.79561V7.19952H16.1995V16.2019ZM16.1995 5.39903H1.79561V3.59854H16.1995V5.39903Z" fill="#A7A7A7"/>
<path d="M10.0778 9H8.27734V10.8005H10.0778V9Z" fill="#A7A7A7"/>
<path d="M13.6788 9H11.8783V10.8005H13.6788V9Z" fill="#A7A7A7"/>
<path d="M10.0778 12.601H8.27734V14.4015H10.0778V12.601Z" fill="#A7A7A7"/>
<path d="M6.47688 12.601H4.67639V14.4015H6.47688V12.601Z" fill="#A7A7A7"/>
</svg>
