<svg width="18" height="18" viewBox="0 0 18 18" fill="none" xmlns="http://www.w3.org/2000/svg">
<path d="M16.5597 1.81498H14.3991V-0.00242615H12.5986V1.81498H5.3967V-0.00242615H3.59622V1.81498H1.4648C0.669348 1.81498 0.0244141 2.45992 0.0244141 3.25537V16.562C0.0244141 17.3575 0.669348 18.0024 1.4648 18.0024H16.5597C17.3552 18.0024 18.0001 17.3575 18.0001 16.562V3.25537C18.0001 2.45992 17.3552 1.81498 16.5597 1.81498ZM16.1996 16.2019H1.79573V7.19952H16.1996V16.2019ZM16.1996 5.39903H1.79573V3.59854H16.1996V5.39903Z" fill="#33CCCC"/>
<path d="M10.0781 9H8.27759V10.8005H10.0781V9Z" fill="#33CCCC"/>
<path d="M13.6789 9H11.8784V10.8005H13.6789V9Z" fill="#33CCCC"/>
<path d="M10.0781 12.601H8.27759V14.4015H10.0781V12.601Z" fill="#33CCCC"/>
<path d="M6.477 12.601H4.67651V14.4015H6.477V12.601Z" fill="#33CCCC"/>
</svg>
