<svg width="16" height="16" viewBox="0 0 16 16" fill="none" xmlns="http://www.w3.org/2000/svg">
<path d="M13.7143 0H2.28607C1.02357 0 0.000303575 1.02321 0.000232147 2.28571L3.73923e-09 13.6821C-7.14248e-05 14.975 1.02321 16 2.28571 16H10.575C11.4843 16 12.3564 15.6386 12.9996 14.9957L14.9954 12.9996C15.6393 12.325 16 11.4857 16 10.575V2.28571C16 1.02857 14.9714 0 13.7143 0ZM1.88179 14.1179C1.81929 14.0571 1.71429 13.9214 1.71429 13.7143L1.71498 2.31786C1.715 1.97071 1.97143 1.71429 2.28643 1.71429H13.7143C14.0241 1.71429 14.2857 1.976 14.2857 2.28571V9.14286H11.1429C10.0393 9.14286 9.14286 10.0393 9.14286 11.1429V14.2857H2.28571C2.07964 14.2857 1.94429 14.1821 1.88179 14.1179ZM11.7893 13.7821C11.5321 14.0393 11.2071 14.2 10.8571 14.2571V11.1429C10.8571 10.9855 10.9855 10.8571 11.1429 10.8571H14.2582C14.2005 11.2076 14.0398 11.5314 13.7836 11.7875L11.7893 13.7821Z" fill="#A7A7A7"/>
</svg>
