<svg width="22" height="22" viewBox="0 0 22 22" fill="none" xmlns="http://www.w3.org/2000/svg">
<path d="M5.67866 20.9894C5.39899 20.989 5.12655 20.9005 4.90001 20.7365C4.70477 20.5884 4.55126 20.3922 4.45445 20.1671C4.35764 19.942 4.32084 19.6956 4.34764 19.4521L4.83346 14.0015L1.35282 9.90193C1.19558 9.71488 1.08911 9.49051 1.04366 9.25041C0.9982 9.01031 1.01529 8.76256 1.09327 8.53097C1.16514 8.30527 1.29425 8.10203 1.46804 7.94108C1.64182 7.78012 1.85435 7.66694 2.08489 7.61256L7.15611 6.41464L9.81816 1.75604C9.93652 1.544 10.1093 1.3674 10.3187 1.24447C10.5282 1.12153 10.7666 1.05672 11.0094 1.05672C11.2523 1.05672 11.4907 1.12153 11.7001 1.24447C11.9095 1.3674 12.0823 1.544 12.2007 1.75604L14.8628 6.44791L19.934 7.64584C20.1645 7.70021 20.377 7.8134 20.5508 7.97435C20.7246 8.13531 20.8537 8.33854 20.9256 8.56425C21.0036 8.79583 21.0207 9.04359 20.9752 9.28369C20.9298 9.52379 20.8233 9.74815 20.666 9.93521L17.2054 14.0015L17.6912 19.4521C17.7143 19.6987 17.6724 19.947 17.5696 20.1724C17.4669 20.3977 17.3069 20.5922 17.1055 20.7365C16.9152 20.8742 16.6917 20.959 16.458 20.9824C16.2242 21.0058 15.9884 20.9669 15.7745 20.8696L11.0028 18.7133L6.2377 20.8696C6.06223 20.9496 5.87149 20.9904 5.67866 20.9894ZM11.0361 2.355L8.17434 7.29977C8.12916 7.37947 8.06801 7.44897 7.99471 7.50394C7.92142 7.55891 7.83757 7.59815 7.74841 7.61922L2.4243 8.87704C2.38437 8.94359 2.37772 8.98352 2.4243 9.0168L6.05135 13.336C6.10752 13.4029 6.14994 13.4803 6.17621 13.5637C6.20247 13.647 6.21206 13.7347 6.20442 13.8218L5.69198 19.5452C5.63208 19.6584 5.67866 19.6584 5.67866 19.6584L10.7233 17.3823C10.8091 17.3437 10.9021 17.3238 10.9961 17.3238C11.0902 17.3238 11.1832 17.3437 11.269 17.3823L16.3269 19.6584C16.3269 19.6584 16.3868 19.6584 16.3801 19.5718L15.8677 13.8484C15.86 13.7614 15.8696 13.6736 15.8959 13.5903C15.9222 13.5069 15.9646 13.4296 16.0208 13.3626L19.6545 9.04342C19.662 9.02906 19.666 9.01307 19.666 8.99683C19.666 8.9806 19.662 8.9646 19.6545 8.95024L14.2638 7.61922C14.1746 7.59815 14.0908 7.55891 14.0175 7.50394C13.9442 7.44897 13.8831 7.37947 13.8379 7.29977L11.0361 2.355Z" fill="#101820" stroke="black" stroke-width="0.2"/>
</svg>
